<?xml version="1.0" encoding="utf-8"?>
<!-- Generator: Adobe Illustrator 17.0.1, SVG Export Plug-In . SVG Version: 6.00 Build 0)  -->
<!DOCTYPE svg PUBLIC "-//W3C//DTD SVG 1.1//EN" "http://www.w3.org/Graphics/SVG/1.1/DTD/svg11.dtd">
<svg version="1.1" id="Layer_1" xmlns="http://www.w3.org/2000/svg" xmlns:xlink="http://www.w3.org/1999/xlink" x="0px" y="0px"
	 width="130.7px" height="142.27px" viewBox="0 0 130.7 142.27" style="enable-background:new 0 0 130.7 142.27;"
	 xml:space="preserve">
<style type="text/css">
	.st0{fill:#FFA516;}
</style>
<g>
	<g>
		<path class="st0" d="M18.24,133.59c0.15,0.42,0.28,0.8,0.41,1.18c0.65,1.81,0.29,2.91-1.54,3.56c-2.07,0.74-4.23,1.26-6.37,1.79
			c-3.09,0.76-6.2,1.44-9.31,2.14c-0.19,0.04-0.39,0.01-0.79,0.01c0.9-0.72,1.73-1.25,2.4-1.93c2.11-2.1,4.18-4.25,6.25-6.4
			c0.93-0.96,1.76-2.02,2.73-2.93c1.95-1.85,3.47-1.72,5.24,0.45c3.55-1.89,7.12-3.79,10.87-5.78c-0.45-0.37-0.77-0.67-1.12-0.92
			C12.93,114.34,4.16,100.51,1.08,83.3c-3.05-17.04,0.39-32.91,9.8-47.45c5.55-8.57,12.87-15.32,21.65-20.5
			c0.68-0.4,1.31-0.99,1.79-1.62C37.3,9.71,40.5,5.9,44.39,2.71c1.07-0.88,2.2-1.69,3.38-2.42c1.02-0.63,1.76-0.22,1.99,0.96
			c0.03,0.15,0.06,0.32,0.02,0.46c-0.57,2.16,0.4,4.37-0.34,6.62c25.68-5.31,47.42,1.58,65.41,20.64c0.76-0.65,1.5-1.34,2.3-1.96
			c0.54-0.42,1.03-1.06,1.91-0.61c0.16,0.08,0.61-0.26,0.84-0.49c0.47-0.47,0.84-1.05,1.34-1.49c0.5-0.44,1-0.28,1.15,0.38
			c0.12,0.53,0.11,1.12,0.02,1.66c-0.33,2.12-1.39,3.96-2.35,5.84c-0.35,0.68-0.75,1.34-1.15,2.04
			c9.82,14.61,13.71,30.6,10.86,47.99c-2.85,17.37-11.53,31.36-25.68,42.15c2.87,3.66,5.7,7.28,8.67,11.06
			c-1.03,0.13-1.58-0.38-2.11-0.78c-2.63-2.06-5.23-4.16-7.84-6.24c-0.68-0.54-1.33-1.45-2.05-1.52c-0.72-0.07-1.53,0.69-2.27,1.13
			c-7.77,4.57-16.14,7.49-25.08,8.53c-14.77,1.71-28.65-1.12-41.47-8.74c-1.1-0.66-1.91-0.71-3.06-0.06
			c-3.17,1.8-6.44,3.43-9.67,5.13C18.9,133.19,18.6,133.38,18.24,133.59z M62.58,53.94c1.39-0.81,2.65-1.59,3.95-2.3
			c8.39-4.59,17.43-7.22,26.82-8.72c0.81-0.13,1.4-0.42,1.99-0.99c2.05-1.94,4.14-3.84,6.27-5.69c0.78-0.68,1.72-1.15,2.7-0.32
			c0.76-0.72,1.41-1.34,2.16-2.05c-1.25-1.22-2.31-2.34-3.47-3.35c-14.73-12.86-31.64-17.22-50.74-13c-2.25,0.5-2.26,0.55-2.38,2.57
			c-0.02,0.38,0.15,0.78,0.25,1.16c0.16,0.59,0.52,1.19,0.49,1.76c-0.09,1.74,0.14,3.43,0.34,5.14c0.17,1.45-0.1,2.94,0.6,4.33
			c0.15,0.3,0.15,0.71,0.11,1.06c-0.13,1.17-0.32,2.33-0.45,3.5c-0.04,0.37-0.14,0.97,0.05,1.1c1.36,0.97,1.78,2.32,1.7,3.86
			c2.46,0.44,2.56,0.54,3.13,3.03c1.85,0.1,2.39,1.42,2.51,2.97c2.32,0.57,2.42,0.74,2.22,4.06C61.95,52.07,62.4,52.82,62.58,53.94z
			 M112.17,41.37c-2.39,1.21-4.59,2.31-6.78,3.43c-0.26,0.13-0.57,0.3-0.71,0.54c-0.83,1.4-2.2,2.11-3.54,2.88
			c-0.5,0.29-1.02,0.72-1.28,1.22c-0.87,1.67-2.17,2.86-3.81,3.7c-0.92,0.47-1.55,1.1-2.17,1.98c-0.98,1.39-1.96,2.78-2.92,4.19
			c-0.76,1.11-1.98,1.91-2.99,2.86c-0.29,0.27-0.74,0.54-0.8,0.87c-0.47,2.43-2.1,3.93-4,5.25c-0.27,0.19-0.57,0.49-0.64,0.79
			c-0.54,2.16-1.85,3.63-3.57,4.33c-0.47,1.13-0.84,2.01-1.2,2.88c-0.1,0.23-0.23,0.46-0.27,0.71c-0.11,0.81-0.78,1.28-1.13,1.89
			c-0.61,1.09-1.09,2.25-1.86,3.27c-0.28,0.37-0.31,0.92-0.5,1.5c4.67,2.88,8.4,6.9,11.95,11.19c1.09-0.57,2.07-1.13,3.08-1.61
			c0.73-0.34,1.15-0.84,1.17-1.65c0.01-0.94,0.57-1.43,1.35-1.87c2.42-1.36,4.79-2.8,7.19-4.2c0.33-0.19,0.68-0.34,1.34-0.66
			c-0.81,1.3-1.41,2.27-2.01,3.24c2.34-0.94,4.5-2.09,6.65-3.25c0.17-0.09,0.31-0.27,0.41-0.44c1.04-1.77,2.13-3.51,3.08-5.33
			c0.33-0.62,0.61-1.11,1.28-1.41c1.93-0.85,3.82-1.77,5.75-2.63c1.74-0.77,3.49-1.51,5.25-2.23c0.61-0.25,0.9-0.61,0.84-1.28
			c-0.08-1.02-0.12-2.05-0.17-3.08c-0.5-9.38-3.32-18.03-8.24-26.02C112.67,42.06,112.4,41.69,112.17,41.37z M23.81,34.83
			c-0.07-0.03-0.14-0.06-0.21-0.09c-0.11,0.1-0.24,0.19-0.34,0.31C12.79,47.34,8.22,61.54,9.73,77.6c0.89,9.37,4.1,17.99,9.44,25.78
			c4.6,6.72,10.39,12.17,17.35,16.4c0.87,0.53,1.57,0.68,2.52,0.11c1.8-1.08,3.71-1.99,5.57-2.99c0.48-0.26,0.94-0.56,1.42-0.86
			c-4.18-5.4-7.49-7.96-13.14-11.22c-2.13-1.23-4.28-2.45-6.3-3.86c-1.64-1.15-2.9-2.71-3.64-4.74c0.37,0.12,0.61,0.2,0.98,0.32
			c-1.01-2.19-1.82-4.26-1.78-6.58c0.29,0.07,0.48,0.11,0.71,0.16c0.09-1.54-0.25-3.14,0.56-4.65c0.27,0.24,0.44,0.39,0.64,0.57
			c0.29-2.07-0.33-4.19,0.66-6.5c0.32,1.05,0.54,1.79,0.77,2.53c0.11,0,0.21-0.01,0.32-0.01c0.08-1.83,0.15-3.65,0.23-5.48
			c0.08,0,0.16,0,0.23,0c0.41,0.83,0.81,1.66,1.22,2.49c0.08-0.03,0.17-0.07,0.25-0.1c-0.03-0.44-0.05-0.89-0.1-1.6
			c0.74,0.84,1.32,1.5,2.07,2.34c0.39-2.34,1.72-3.83,3.06-5.33c0.48-0.54,0.91-1.11,1.32-1.7c1.1-1.58,1.04-3.19-0.04-4.74
			c-0.53-0.76-1.11-1.48-1.75-2.15c-2.48-2.61-5.07-5.11-7.46-7.8c-1.42-1.6-2.68-3.39-3.76-5.24c-1.37-2.35-1.7-4.93-0.83-7.59
			c0.71-2.15,1.42-4.29,2.15-6.43C22.86,37.41,23.34,36.12,23.81,34.83z M98.65,116.78c5.71-4.3,10.35-9.26,14.04-15.11
			c3.66-5.81,6.2-12.06,7.53-19.16c-0.78,0.5-1.25,0.81-1.72,1.11c-1.8,1.1-3.59,2.2-5.39,3.29c-0.72,0.43-1.46,0.62-2.35,0.5
			c-1.11-0.15-2.26-0.07-3.39-0.14c-2.21-0.13-4.26,0.28-6.12,1.58c-0.75,0.53-1.59,0.91-2.39,1.36c0.03,0.08,0.07,0.16,0.1,0.24
			c1.2,0,2.4,0,3.96,0c-2.69,1.7-5.08,3.17-7.75,4.12c-0.51,0.18-1.12,0.23-1.66,0.14c-2.34-0.36-4.34,0.39-6.2,1.83
			c0.17,0.3,0.33,0.62,0.53,0.91c2.13,3.1,4.02,6.32,5.44,9.83C94.63,110.63,96.56,113.66,98.65,116.78z M50.21,113.91
			c5.39-2.88,10.65-5.68,15.9-8.48c2.73-1.46,2.75-1.46,2.14-4.56c-0.6-3-1.64-5.82-3.55-8.27c-0.49-0.63-0.97-0.86-1.82-0.75
			c-1.73,0.23-3.48,0.35-5.22,0.37c-5.03,0.06-9.94-0.55-14.58-2.66c-1.16-0.53-1.82-0.23-2.01,0.99c-0.22,1.44-0.43,2.88,0.39,4.31
			c0.51,0.91,0.64,2.04,0.91,3.07c0.27,1.04,0.4,2.13,0.79,3.12c0.67,1.72,1.47,3.39,2.26,5.06
			C46.71,108.83,48.25,111.44,50.21,113.91z M51.46,115.84c1.73,2.89,3.72,5.42,5.1,8.3c-0.08,0.07-0.17,0.13-0.25,0.2
			c-0.78-0.62-1.57-1.24-2.61-2.07c0.55,1.19,0.95,2.04,1.34,2.89c-0.11,0.08-0.21,0.16-0.32,0.25c-1.63-0.66-2.65-2.09-3.75-3.37
			c-1.16-1.35-2.23-2.77-3.35-4.17c-2.48,1.35-4.78,2.6-7.32,3.98c8.76,4.3,17.65,6.24,27,5.89c0.49-7.12,2.09-14.03,1.51-21.28
			C62.97,109.61,57.26,112.7,51.46,115.84z M93.76,120.03c-0.55-0.36-0.86-0.64-1.22-0.78c-1.96-0.79-3.62-2.01-4.86-3.67
			c-0.96-1.27-2.09-2.14-3.64-2.15c-1.39-0.01-2.87,0.07-4.16,0.53c-1.22,0.44-2.67,0.77-3.39,2.16c-0.13,0.26-0.61,0.34-0.93,0.5
			c-0.22,0.11-0.57,0.17-0.65,0.35c-0.47,1.14-0.92,2.28-1.95,3.05c0.15,1.24-0.72,2.08-1.24,3.05c-0.38,0.7-0.8,1.46-1.4,1.95
			c-0.83,0.69-1.34,1.49-1.7,2.65C77.58,127.13,85.81,124.63,93.76,120.03z M121.32,72.99c-2.41,1.97-4.41,3.84-6.14,5.98
			c-0.62,0.77-0.09,1.79,0.94,1.83c0.76,0.03,1.52-0.12,2.28-0.22c2.28-0.31,2.32-0.32,2.58-2.63
			C121.14,76.42,121.19,74.86,121.32,72.99z"/>
	</g>
</g>
</svg>
