<svg xmlns="http://www.w3.org/2000/svg" width="130.7" height="142.27"><style type="text/css">.st0{fill:#FFA516;}</style><path class="st0" d="M18.24 133.59l.41 1.18c.65 1.81.29 2.91-1.54 3.56-2.07.74-4.23 1.26-6.37 1.79-3.09.76-6.2 1.44-9.31 2.14-.19.04-.39.01-.79.01.9-.72 1.73-1.25 2.4-1.93 2.11-2.1 4.18-4.25 6.25-6.4.93-.96 1.76-2.02 2.73-2.93 1.95-1.85 3.47-1.72 5.24.45 3.55-1.89 7.12-3.79 10.87-5.78-.45-.37-.77-.67-1.12-.92-14.08-10.42-22.85-24.25-25.93-41.46-3.05-17.04.39-32.91 9.8-47.45 5.55-8.57 12.87-15.32 21.65-20.5.68-.4 1.31-.99 1.79-1.62 2.98-4.02 6.18-7.83 10.07-11.02 1.07-.88 2.2-1.69 3.38-2.42 1.02-.63 1.76-.22 1.99.96.03.15.06.32.02.46-.57 2.16.4 4.37-.34 6.62 25.68-5.31 47.42 1.58 65.41 20.64.76-.65 1.5-1.34 2.3-1.96.54-.42 1.03-1.06 1.91-.61.16.08.61-.26.84-.49.47-.47.84-1.05 1.34-1.49.5-.44 1-.28 1.15.38.12.53.11 1.12.02 1.66-.33 2.12-1.39 3.96-2.35 5.84-.35.68-.75 1.34-1.15 2.04 9.82 14.61 13.71 30.6 10.86 47.99-2.85 17.37-11.53 31.36-25.68 42.15 2.87 3.66 5.7 7.28 8.67 11.06-1.03.13-1.58-.38-2.11-.78-2.63-2.06-5.23-4.16-7.84-6.24-.68-.54-1.33-1.45-2.05-1.52-.72-.07-1.53.69-2.27 1.13-7.77 4.57-16.14 7.49-25.08 8.53-14.77 1.71-28.65-1.12-41.47-8.74-1.1-.66-1.91-.71-3.06-.06-3.17 1.8-6.44 3.43-9.67 5.13-.31.2-.61.39-.97.6zm44.34-79.65c1.39-.81 2.65-1.59 3.95-2.3 8.39-4.59 17.43-7.22 26.82-8.72.81-.13 1.4-.42 1.99-.99 2.05-1.94 4.14-3.84 6.27-5.69.78-.68 1.72-1.15 2.7-.32l2.16-2.05c-1.25-1.22-2.31-2.34-3.47-3.35-14.73-12.86-31.64-17.22-50.74-13-2.25.5-2.26.55-2.38 2.57-.02.38.15.78.25 1.16.16.59.52 1.19.49 1.76-.09 1.74.14 3.43.34 5.14.17 1.45-.1 2.94.6 4.33.15.3.15.71.11 1.06l-.45 3.5c-.04.37-.14.97.05 1.1 1.36.97 1.78 2.32 1.7 3.86 2.46.44 2.56.54 3.13 3.03 1.85.1 2.39 1.42 2.51 2.97 2.32.57 2.42.74 2.22 4.06 1.12.01 1.57.76 1.75 1.88zm49.59-12.57c-2.39 1.21-4.59 2.31-6.78 3.43-.26.13-.57.3-.71.54-.83 1.4-2.2 2.11-3.54 2.88-.5.29-1.02.72-1.28 1.22-.87 1.67-2.17 2.86-3.81 3.7-.92.47-1.55 1.1-2.17 1.98-.98 1.39-1.96 2.78-2.92 4.19-.76 1.11-1.98 1.91-2.99 2.86-.29.27-.74.54-.8.87-.47 2.43-2.1 3.93-4 5.25-.27.19-.57.49-.64.79-.54 2.16-1.85 3.63-3.57 4.33l-1.2 2.88c-.1.23-.23.46-.27.71-.11.81-.78 1.28-1.13 1.89-.61 1.09-1.09 2.25-1.86 3.27-.28.37-.31.92-.5 1.5 4.67 2.88 8.4 6.9 11.95 11.19 1.09-.57 2.07-1.13 3.08-1.61.73-.34 1.15-.84 1.17-1.65.01-.94.57-1.43 1.35-1.87 2.42-1.36 4.79-2.8 7.19-4.2.33-.19.68-.34 1.34-.66-.81 1.3-1.41 2.27-2.01 3.24 2.34-.94 4.5-2.09 6.65-3.25.17-.09.31-.27.41-.44 1.04-1.77 2.13-3.51 3.08-5.33.33-.62.61-1.11 1.28-1.41 1.93-.85 3.82-1.77 5.75-2.63 1.74-.77 3.49-1.51 5.25-2.23.61-.25.9-.61.84-1.28-.08-1.02-.12-2.05-.17-3.08-.5-9.38-3.32-18.03-8.24-26.02-.25-.37-.52-.74-.75-1.06zm-88.36-6.54l-.21-.09c-.11.1-.24.19-.34.31-10.47 12.29-15.04 26.49-13.53 42.55.89 9.37 4.1 17.99 9.44 25.78 4.6 6.72 10.39 12.17 17.35 16.4.87.53 1.57.68 2.52.11 1.8-1.08 3.71-1.99 5.57-2.99.48-.26.94-.56 1.42-.86-4.18-5.4-7.49-7.96-13.14-11.22-2.13-1.23-4.28-2.45-6.3-3.86-1.64-1.15-2.9-2.71-3.64-4.74l.98.32c-1.01-2.19-1.82-4.26-1.78-6.58l.71.16c.09-1.54-.25-3.14.56-4.65l.64.57c.29-2.07-.33-4.19.66-6.5.32 1.05.54 1.79.77 2.53l.32-.01.23-5.48h.23l1.22 2.49.25-.1-.1-1.6c.74.84 1.32 1.5 2.07 2.34.39-2.34 1.72-3.83 3.06-5.33.48-.54.91-1.11 1.32-1.7 1.1-1.58 1.04-3.19-.04-4.74-.53-.76-1.11-1.48-1.75-2.15-2.48-2.61-5.07-5.11-7.46-7.8-1.42-1.6-2.68-3.39-3.76-5.24-1.37-2.35-1.7-4.93-.83-7.59.71-2.15 1.42-4.29 2.15-6.43.46-1.32.94-2.61 1.41-3.9zm74.84 81.95c5.71-4.3 10.35-9.26 14.04-15.11 3.66-5.81 6.2-12.06 7.53-19.16l-1.72 1.11c-1.8 1.1-3.59 2.2-5.39 3.29-.72.43-1.46.62-2.35.5-1.11-.15-2.26-.07-3.39-.14-2.21-.13-4.26.28-6.12 1.58-.75.53-1.59.91-2.39 1.36l.1.24h3.96c-2.69 1.7-5.08 3.17-7.75 4.12-.51.18-1.12.23-1.66.14-2.34-.36-4.34.39-6.2 1.83.17.3.33.62.53.91 2.13 3.1 4.02 6.32 5.44 9.83 1.35 3.35 3.28 6.38 5.37 9.5zm-48.44-2.87c5.39-2.88 10.65-5.68 15.9-8.48 2.73-1.46 2.75-1.46 2.14-4.56-.6-3-1.64-5.82-3.55-8.27-.49-.63-.97-.86-1.82-.75-1.73.23-3.48.35-5.22.37-5.03.06-9.94-.55-14.58-2.66-1.16-.53-1.82-.23-2.01.99-.22 1.44-.43 2.88.39 4.31.51.91.64 2.04.91 3.07.27 1.04.4 2.13.79 3.12.67 1.72 1.47 3.39 2.26 5.06 1.29 2.72 2.83 5.33 4.79 7.8zm1.25 1.93c1.73 2.89 3.72 5.42 5.1 8.3l-.25.2c-.78-.62-1.57-1.24-2.61-2.07l1.34 2.89-.32.25c-1.63-.66-2.65-2.09-3.75-3.37-1.16-1.35-2.23-2.77-3.35-4.17-2.48 1.35-4.78 2.6-7.32 3.98 8.76 4.3 17.65 6.24 27 5.89.49-7.12 2.09-14.03 1.51-21.28-5.84 3.15-11.55 6.24-17.35 9.38zm42.3 4.19c-.55-.36-.86-.64-1.22-.78-1.96-.79-3.62-2.01-4.86-3.67-.96-1.27-2.09-2.14-3.64-2.15-1.39-.01-2.87.07-4.16.53-1.22.44-2.67.77-3.39 2.16-.13.26-.61.34-.93.5-.22.11-.57.17-.65.35-.47 1.14-.92 2.28-1.95 3.05.15 1.24-.72 2.08-1.24 3.05-.38.7-.8 1.46-1.4 1.95-.83.69-1.34 1.49-1.7 2.65 8.96-.54 17.19-3.04 25.14-7.64zm27.56-47.04c-2.41 1.97-4.41 3.84-6.14 5.98-.62.77-.09 1.79.94 1.83.76.03 1.52-.12 2.28-.22 2.28-.31 2.32-.32 2.58-2.63.16-1.53.21-3.09.34-4.96z"/></svg>